<svg width="552" height="552" viewBox="0 0 552 552" fill="none" xmlns="http://www.w3.org/2000/svg">
<g opacity="0.05">
<rect width="1" height="552" transform="matrix(1 0 0 -1 0 552)" fill="#D9D9D9"/>
<rect width="1" height="552" transform="matrix(1 0 0 -1 45.9167 552)" fill="#D9D9D9"/>
<rect width="1" height="552" transform="matrix(1 0 0 -1 91.8333 552)" fill="#D9D9D9"/>
<rect width="1" height="552" transform="matrix(1 0 0 -1 137.75 552)" fill="#D9D9D9"/>
<rect width="1" height="552" transform="matrix(1 0 0 -1 183.667 552)" fill="#D9D9D9"/>
<rect width="1" height="552" transform="matrix(1 0 0 -1 229.583 552)" fill="#D9D9D9"/>
<rect width="1" height="552" transform="matrix(1 0 0 -1 275.5 552)" fill="#D9D9D9"/>
<rect width="1" height="552" transform="matrix(1 0 0 -1 321.417 552)" fill="#D9D9D9"/>
<rect width="1" height="552" transform="matrix(1 0 0 -1 367.333 552)" fill="#D9D9D9"/>
<rect width="1" height="552" transform="matrix(1 0 0 -1 413.25 552)" fill="#D9D9D9"/>
<rect width="1" height="552" transform="matrix(1 0 0 -1 459.167 552)" fill="#D9D9D9"/>
<rect width="1" height="552" transform="matrix(1 0 0 -1 505.083 552)" fill="#D9D9D9"/>
<rect width="1" height="552" transform="matrix(1 0 0 -1 551 552)" fill="#D9D9D9"/>
</g>
</svg>
