<svg width="552" height="552" viewBox="0 0 552 552" fill="none" xmlns="http://www.w3.org/2000/svg">
<g opacity="0.05">
<rect width="1" height="552" transform="matrix(0 1 1 0 0 0)" fill="#D9D9D9"/>
<rect width="1" height="552" transform="matrix(0 1 1 0 0 45.9167)" fill="#D9D9D9"/>
<rect width="1" height="552" transform="matrix(0 1 1 0 0 91.8333)" fill="#D9D9D9"/>
<rect width="1" height="552" transform="matrix(0 1 1 0 0 137.75)" fill="#D9D9D9"/>
<rect width="1" height="552" transform="matrix(0 1 1 0 0 183.667)" fill="#D9D9D9"/>
<rect width="1" height="552" transform="matrix(0 1 1 0 0 229.583)" fill="#D9D9D9"/>
<rect width="1" height="552" transform="matrix(0 1 1 0 0 275.5)" fill="#D9D9D9"/>
<rect width="1" height="552" transform="matrix(0 1 1 0 0 321.417)" fill="#D9D9D9"/>
<rect width="1" height="552" transform="matrix(0 1 1 0 0 367.333)" fill="#D9D9D9"/>
<rect width="1" height="552" transform="matrix(0 1 1 0 0 413.25)" fill="#D9D9D9"/>
<rect width="1" height="552" transform="matrix(0 1 1 0 0 459.167)" fill="#D9D9D9"/>
<rect width="1" height="552" transform="matrix(0 1 1 0 0 505.083)" fill="#D9D9D9"/>
<rect width="1" height="552" transform="matrix(0 1 1 0 0 551)" fill="#D9D9D9"/>
</g>
</svg>
