<svg width="48" height="48" viewBox="0 0 48 48" fill="none" xmlns="http://www.w3.org/2000/svg">
<path d="M43.9901 27.04C43.8861 25.84 42.9121 24.628 41.2881 23.5M43.9901 27.04C44.0441 27.656 43.8661 28.232 43.4861 28.762C42.7141 29.834 41.1041 30.714 38.8861 31.34C42.2001 30.404 44.1541 28.904 43.9901 27.04ZM43.9901 27.04C43.9659 26.7795 43.9053 26.5237 43.8101 26.28C43.6033 25.7806 43.3101 25.3216 42.9441 24.924C42.2321 24.124 41.1801 23.348 39.8581 22.62C39.0341 22.164 38.1021 21.73 37.0821 21.32C38.7461 21.986 40.1701 22.724 41.2881 23.5M43.9901 27.04C44.1801 29.22 41.4741 30.904 37.0821 31.768M41.2881 23.5C37.7141 21.018 30.9821 18.936 23.3921 18.24C12.3521 17.226 3.67206 19.52 4.01006 23.368M4.01006 23.368C4.03426 23.6285 4.09485 23.8843 4.19006 24.128C4.36606 24.584 4.65472 25.0367 5.05606 25.486C5.76806 26.284 6.82006 27.06 8.14206 27.79M4.01006 23.368C3.84606 21.504 5.80006 20.004 9.11606 19.068C6.89606 19.694 5.28606 20.574 4.51606 21.648C4.14054 22.1391 3.96027 22.7518 4.01006 23.368ZM4.01006 23.368C4.11406 24.57 5.08806 25.782 6.71206 26.908M6.71206 26.908C7.83006 27.684 9.25606 28.422 10.9181 29.088C9.89806 28.68 8.96606 28.244 8.14206 27.788C10.0421 28.836 12.5041 29.782 15.3301 30.542M6.71206 26.908C9.02606 28.514 12.6641 29.954 17.0001 30.958M39.8601 22.618C37.9581 21.572 35.4961 20.626 32.6701 19.868" stroke="white" stroke-linecap="round"/>
<path d="M30.548 9.7C31.068 9.37333 31.57 9.09133 32.054 8.854C33.816 7.994 35.328 7.754 36.404 8.274C36.956 8.54 37.36 8.99 37.624 9.596C37.868 10.164 37.992 10.866 38 11.684M30.548 9.7C26.92 11.99 22.552 16.428 18.764 21.984C12.478 31.204 10.162 40.028 13.576 41.718M30.548 9.7C29.772 10.19 28.96 10.78 28.128 11.458M38 11.684C38.008 12.638 37.856 13.75 37.556 14.98M38 11.684C38.014 13.396 37.518 15.61 36.562 18.112M13.576 41.718L13.594 41.728C13.822 41.8387 14.068 41.9147 14.332 41.956C14.806 42.036 15.336 42.006 15.914 41.882C16.946 41.662 18.124 41.128 19.396 40.332C19.6946 40.1453 19.9973 39.9447 20.304 39.73C20.8173 39.37 21.34 38.9733 21.872 38.54L24.222 36.632M13.576 41.718C11.924 40.9 11.612 38.414 12.442 35.022" stroke="white" stroke-linecap="round"/>
<path d="M23.5301 28.562C23.5021 26.742 23.4901 25.832 24.0621 25.5C24.6341 25.168 25.4181 25.636 26.9821 26.57L27.3861 26.81C27.8301 27.078 28.0521 27.21 28.2961 27.24C28.5421 27.272 28.7801 27.198 29.2601 27.048L29.6961 26.914C31.3821 26.39 32.2241 26.128 32.7321 26.594C33.2381 27.064 33.0721 27.952 32.7421 29.726L32.6581 30.186C32.5641 30.69 32.5181 30.944 32.5721 31.19C32.6261 31.436 32.7801 31.65 33.0841 32.074L33.3601 32.462C34.4301 33.96 34.9641 34.708 34.7041 35.328C34.4441 35.948 33.5581 36.03 31.7921 36.194L31.3341 36.236C30.8341 36.282 30.5821 36.306 30.3701 36.428C30.1601 36.548 30.0141 36.754 29.7241 37.166L29.4581 37.54C28.4341 38.99 27.9221 39.714 27.2541 39.63C26.5861 39.546 26.2041 38.708 25.4421 37.034L25.2461 36.6C25.0281 36.124 24.9201 35.886 24.7341 35.714C24.5481 35.544 24.3081 35.458 23.8241 35.286L23.3841 35.13C21.6801 34.53 20.8281 34.23 20.6761 33.556C20.5241 32.882 21.1721 32.284 22.4701 31.086L22.8041 30.776C23.1721 30.436 23.3581 30.264 23.4521 30.036C23.5481 29.81 23.5441 29.55 23.5361 29.034L23.5301 28.562Z" stroke="white"/>
</svg>
