<svg width="64" height="64" viewBox="0 0 64 64" fill="none" xmlns="http://www.w3.org/2000/svg">
<path d="M24 8H10.6667C9.95942 8 9.28115 8.28095 8.78105 8.78105C8.28095 9.28115 8 9.95942 8 10.6667V24C8 24.7072 8.28095 25.3855 8.78105 25.8856C9.28115 26.3857 9.95942 26.6667 10.6667 26.6667H24C24.7072 26.6667 25.3855 26.3857 25.8856 25.8856C26.3857 25.3855 26.6667 24.7072 26.6667 24V10.6667C26.6667 9.95942 26.3857 9.28115 25.8856 8.78105C25.3855 8.28095 24.7072 8 24 8ZM24 37.3333H10.6667C9.95942 37.3333 9.28115 37.6143 8.78105 38.1144C8.28095 38.6145 8 39.2928 8 40V53.3333C8 54.0406 8.28095 54.7189 8.78105 55.219C9.28115 55.7191 9.95942 56 10.6667 56H24C24.7072 56 25.3855 55.7191 25.8856 55.219C26.3857 54.7189 26.6667 54.0406 26.6667 53.3333V40C26.6667 39.2928 26.3857 38.6145 25.8856 38.1144C25.3855 37.6143 24.7072 37.3333 24 37.3333ZM46.6667 26.6667C47.8923 26.6667 49.106 26.4253 50.2384 25.9562C51.3708 25.4872 52.3997 24.7997 53.2663 23.933C54.133 23.0663 54.8205 22.0374 55.2895 20.905C55.7586 19.7727 56 18.559 56 17.3333C56 16.1077 55.7586 14.894 55.2895 13.7616C54.8205 12.6292 54.133 11.6004 53.2663 10.7337C52.3997 9.86699 51.3708 9.1795 50.2384 8.71046C49.106 8.24141 47.8923 8 46.6667 8C44.1913 8 41.8173 8.98333 40.067 10.7337C38.3167 12.484 37.3333 14.858 37.3333 17.3333C37.3333 19.8087 38.3167 22.1827 40.067 23.933C41.8173 25.6833 44.1913 26.6667 46.6667 26.6667ZM53.3333 37.3333H40C39.2928 37.3333 38.6145 37.6143 38.1144 38.1144C37.6143 38.6145 37.3333 39.2928 37.3333 40V53.3333C37.3333 54.0406 37.6143 54.7189 38.1144 55.219C38.6145 55.7191 39.2928 56 40 56H53.3333C54.0406 56 54.7189 55.7191 55.219 55.219C55.7191 54.7189 56 54.0406 56 53.3333V40C56 39.2928 55.7191 38.6145 55.219 38.1144C54.7189 37.6143 54.0406 37.3333 53.3333 37.3333Z" stroke="white" stroke-width="3.3" stroke-linejoin="round"/>
</svg>
