<svg width="64" height="64" viewBox="0 0 64 64" fill="none" xmlns="http://www.w3.org/2000/svg">
<path d="M16 7.33325C16.0004 6.95621 15.8942 6.58675 15.6936 6.26748C15.4931 5.9482 15.2063 5.69212 14.8665 5.52876C14.5267 5.36541 14.1477 5.30143 13.7731 5.34422C13.3984 5.38701 13.0436 5.53481 12.7493 5.77059C9.25601 8.56792 7.35468 11.0186 6.35468 13.1519C5.6346 14.6641 5.28452 16.3258 5.33335 17.9999C5.33335 20.5226 6.60535 22.7466 8.54401 24.0666C8.01106 24.5166 7.55527 25.0508 7.19468 25.6479C5.92535 27.7013 5.33335 30.8399 5.33335 35.3466C5.33335 39.9119 5.94668 45.3946 6.94668 49.7733C7.44268 51.9493 8.05868 53.9573 8.79201 55.4639C9.15735 56.2133 9.60268 56.9439 10.152 57.5173C10.7013 58.0799 11.5467 58.6799 12.6667 58.6799C13.7867 58.6799 14.632 58.0799 15.1787 57.5173C15.7353 56.9071 16.1941 56.2145 16.5387 55.4639C17.2747 53.9546 17.8907 51.9493 18.3867 49.7706C19.4278 45.0314 19.9685 40.196 20 35.3439C20 30.8373 19.408 27.7013 18.1387 25.6479C17.7781 25.0508 17.3223 24.5166 16.7893 24.0666C17.7788 23.394 18.5886 22.4895 19.1483 21.4321C19.7079 20.3746 20.0003 19.1963 20 17.9999C20 15.5279 18.8373 13.8026 17.952 12.4853L17.8747 12.3706C16.8347 10.8213 16 9.54659 16 7.33325ZM9.33335 17.9999C9.33335 17.2053 9.33335 16.2239 9.97868 14.8506C10.4267 13.8879 11.2293 12.6666 12.6773 11.1946C13.192 12.5733 13.912 13.6479 14.5227 14.5546L14.5547 14.6026C15.5067 16.0186 16 16.8293 16 17.9999C16 18.884 15.6488 19.7318 15.0237 20.3569C14.3986 20.9821 13.5507 21.3333 12.6667 21.3333C11.7826 21.3333 10.9348 20.9821 10.3097 20.3569C9.68454 19.7318 9.33335 18.884 9.33335 17.9999ZM9.33335 35.3466C9.33335 31.0186 9.93601 28.8213 10.5973 27.7493C10.7985 27.3897 11.0996 27.0961 11.464 26.9039C11.8421 26.7371 12.2538 26.6604 12.6667 26.6799C13.2 26.6799 13.5813 26.7626 13.8693 26.9039C14.136 27.0319 14.4347 27.2639 14.736 27.7493C15.3973 28.8213 16 31.0186 16 35.3466C16 39.6159 15.4187 44.7999 14.488 48.8826C14.0187 50.9359 13.4853 52.6026 12.944 53.7119C12.858 53.8886 12.7655 54.0621 12.6667 54.2319C12.5679 54.0621 12.4754 53.8886 12.3893 53.7119C11.848 52.6026 11.3147 50.9333 10.8453 48.8826C9.87304 44.4353 9.36631 39.8988 9.33335 35.3466ZM22.624 37.5386C23.9074 38.1027 25.2717 38.4609 26.6667 38.5999V32.6666C26.6667 31.5285 26.8909 30.4015 27.3264 29.35C27.7619 28.2985 28.4003 27.3431 29.2051 26.5383C30.0099 25.7336 30.9653 25.0952 32.0168 24.6596C33.0682 24.2241 34.1952 23.9999 35.3333 23.9999H41.2667C41.0477 21.8172 40.2935 19.7222 39.071 17.9007C37.8485 16.0792 36.1955 14.5875 34.2585 13.5578C32.3215 12.5281 30.1603 11.9923 27.9666 11.9978C25.773 12.0032 23.6145 12.5499 21.6827 13.5893C21.2676 12.7137 20.7787 11.8751 20.2213 11.0826L20.088 10.8853L19.6107 10.1599C22.1511 8.75478 25.0037 8.01021 27.9067 7.99454C30.8098 7.97887 33.6703 8.69261 36.2257 10.0702C38.7811 11.4479 40.9495 13.4453 42.532 15.8791C44.1145 18.313 45.0603 21.1054 45.2827 23.9999H50C51.1381 23.9999 52.2651 24.2241 53.3166 24.6596C54.3681 25.0952 55.3235 25.7336 56.1283 26.5383C56.933 27.3431 57.5714 28.2985 58.007 29.35C58.4425 30.4015 58.6667 31.5285 58.6667 32.6666V47.3333C58.6667 48.4714 58.4425 49.5984 58.007 50.6498C57.5714 51.7013 56.933 52.6567 56.1283 53.4615C55.3235 54.2663 54.3681 54.9047 53.3166 55.3402C52.2651 55.7758 51.1381 55.9999 50 55.9999H35.3333C33.0348 55.9999 30.8304 55.0868 29.2051 53.4615C27.5798 51.8362 26.6667 49.6318 26.6667 47.3333V42.6159C25.1936 42.5036 23.7409 42.2034 22.344 41.7226C22.4773 40.3093 22.5733 38.9013 22.624 37.5386ZM50 27.9999H45.1307C44.5637 31.6325 42.8572 34.991 40.2575 37.5907C37.6578 40.1904 34.2993 41.8969 30.6667 42.4639V47.3333C30.6667 49.9093 32.7573 51.9999 35.3333 51.9999H50C51.2377 51.9999 52.4247 51.5083 53.2998 50.6331C54.175 49.7579 54.6667 48.5709 54.6667 47.3333V32.6666C54.6667 31.4289 54.175 30.2419 53.2998 29.3668C52.4247 28.4916 51.2377 27.9999 50 27.9999ZM30.6667 38.3999C33.2276 37.8741 35.578 36.6085 37.4266 34.7599C39.2753 32.9112 40.5409 30.5609 41.0667 27.9999H35.3333C34.0957 27.9999 32.9087 28.4916 32.0335 29.3668C31.1583 30.2419 30.6667 31.4289 30.6667 32.6666V38.3999Z" fill="white"/>
</svg>
