<svg width="64" height="64" viewBox="0 0 64 64" fill="none" xmlns="http://www.w3.org/2000/svg">
<path d="M58.6666 35.9999C58.6666 40.6933 55.1999 44.5866 50.6666 45.2266V53.3333C50.6666 54.7477 50.1047 56.1043 49.1045 57.1045C48.1043 58.1047 46.7477 58.6666 45.3333 58.6666H35.1999V57.8666C35.1999 55.957 34.4414 54.1257 33.0911 52.7754C31.7408 51.4252 29.9095 50.6666 27.9999 50.6666C23.9999 50.6666 20.7999 53.8933 20.7999 57.8666V58.6666H10.6666C9.2521 58.6666 7.89554 58.1047 6.89535 57.1045C5.89515 56.1043 5.33325 54.7477 5.33325 53.3333V43.1999H6.13325C10.1066 43.1999 13.3333 39.9999 13.3333 35.9999C13.3333 31.9999 10.1066 28.7999 6.13325 28.7999H5.33325V18.6666C5.33325 17.2521 5.89515 15.8955 6.89535 14.8953C7.89554 13.8952 9.2521 13.3333 10.6666 13.3333H18.7733C19.4133 8.79992 23.3066 5.33325 27.9999 5.33325C32.6933 5.33325 36.5866 8.79992 37.2266 13.3333H45.3333C46.7477 13.3333 48.1043 13.8952 49.1045 14.8953C50.1047 15.8955 50.6666 17.2521 50.6666 18.6666V26.7733C55.1999 27.4133 58.6666 31.3066 58.6666 35.9999ZM46.3333 39.9999H50.3333C51.3941 39.9999 52.4115 39.5785 53.1617 38.8283C53.9118 38.0782 54.3333 37.0608 54.3333 35.9999C54.3333 34.9391 53.9118 33.9216 53.1617 33.1715C52.4115 32.4213 51.3941 31.9999 50.3333 31.9999H46.3333V17.6666H31.9999V13.6666C31.9999 12.6057 31.5785 11.5883 30.8283 10.8382C30.0782 10.088 29.0608 9.66659 27.9999 9.66659C26.9391 9.66659 25.9216 10.088 25.1715 10.8382C24.4213 11.5883 23.9999 12.6057 23.9999 13.6666V17.6666H9.66659V24.3199C14.3599 26.1333 17.6666 30.6666 17.6666 35.9999C17.6666 41.3333 14.3333 45.8666 9.66659 47.6799V54.3333H16.3199C17.2337 51.978 18.8379 49.9538 20.9222 48.5262C23.0065 47.0986 25.4736 46.3342 27.9999 46.3333C33.3333 46.3333 37.8666 49.6666 39.6799 54.3333H46.3333V39.9999Z" fill="white"/>
</svg>
